<svg width="520" height="520" viewBox="0 0 520 520" fill="none" xmlns="http://www.w3.org/2000/svg"><defs><radialGradient id="g" cx="35%" cy="16%" r="82%"><stop stop-color="#fff" stop-opacity=".84"/><stop offset=".35" stop-color="#bdefff" stop-opacity=".48"/><stop offset=".72" stop-color="#ffd0e7" stop-opacity=".27"/><stop offset="1" stop-color="#8bd8ff" stop-opacity=".34"/></radialGradient><filter id="s" x="10" y="40" width="500" height="460"><feDropShadow dx="0" dy="18" stdDeviation="18" flood-color="#34739a" flood-opacity=".18"/></filter></defs><g filter="url(#s)" stroke="rgba(255,255,255,.82)" stroke-width="8"><circle cx="210" cy="190" r="74" fill="url(#g)"/><path d="M150 198c-42-4-55 42-10 56" stroke="rgba(255,255,255,.82)" stroke-width="32" stroke-linecap="round" fill="none"/><ellipse cx="286" cy="332" rx="150" ry="100" fill="url(#g)"/><ellipse cx="388" cy="324" rx="78" ry="118" fill="url(#g)" transform="rotate(26 388 324)"/><circle cx="218" cy="430" r="38" fill="url(#g)"/><circle cx="344" cy="430" r="38" fill="url(#g)"/></g><g fill="#17304f"><circle cx="195" cy="184" r="11"/><ellipse cx="154" cy="212" rx="24" ry="14" fill="#ffb72d"/></g><g><circle cx="230" cy="310" r="31" fill="#fff"/><circle cx="310" cy="330" r="33" fill="#f6a0c9"/><circle cx="360" cy="360" r="30" fill="#ffb72d"/><g fill="#77aa4b" opacity=".75"><ellipse cx="260" cy="360" rx="11" ry="38" transform="rotate(-18 260 360)"/><ellipse cx="330" cy="374" rx="12" ry="40" transform="rotate(24 330 374)"/></g></g><ellipse cx="190" cy="135" rx="44" ry="13" fill="#fff" opacity=".86" transform="rotate(-18 190 135)"/></svg>