<svg width="560" height="560" viewBox="0 0 560 560" fill="none" xmlns="http://www.w3.org/2000/svg"><defs><radialGradient id="glass" cx="32%" cy="16%" r="84%"><stop stop-color="#fff" stop-opacity=".95"/><stop offset=".3" stop-color="#d9f7ff" stop-opacity=".82"/><stop offset=".72" stop-color="#b7e9ff" stop-opacity=".58"/><stop offset="1" stop-color="#8ed8f5" stop-opacity=".5"/></radialGradient><filter id="shadow" x="16" y="24" width="528" height="512"><feDropShadow dx="0" dy="20" stdDeviation="18" flood-color="#3b7899" flood-opacity=".22"/></filter></defs><g filter="url(#shadow)" stroke="#fff" stroke-width="10" stroke-linejoin="round"><ellipse cx="178" cy="190" rx="58" ry="102" fill="url(#glass)" transform="rotate(-22 178 190)"/><ellipse cx="382" cy="190" rx="58" ry="102" fill="url(#glass)" transform="rotate(22 382 190)"/><circle cx="280" cy="208" r="112" fill="url(#glass)"/><ellipse cx="295" cy="378" rx="156" ry="104" fill="url(#glass)"/><circle cx="170" cy="458" r="48" fill="url(#glass)"/><circle cx="400" cy="458" r="48" fill="url(#glass)"/><path d="M408 352c78-58 126 28 58 66" stroke="#fff" stroke-width="32" stroke-linecap="round" fill="none"/></g><g fill="#0d2447"><circle cx="238" cy="204" r="14"/><circle cx="322" cy="204" r="14"/><ellipse cx="280" cy="244" rx="21" ry="16"/></g><path d="M258 270c14 13 30 13 44 0" stroke="#0d2447" stroke-width="8" stroke-linecap="round"/><g><circle cx="246" cy="346" r="32" fill="#f6a0c9"/><circle cx="330" cy="380" r="33" fill="#ffbc35"/><circle cx="282" cy="424" r="30" fill="#fff"/><circle cx="372" cy="410" r="28" fill="#f6a0c9"/><g fill="#6aa251" opacity=".82"><ellipse cx="260" cy="392" rx="12" ry="44" transform="rotate(-20 260 392)"/><ellipse cx="336" cy="414" rx="13" ry="46" transform="rotate(26 336 414)"/></g></g><ellipse cx="242" cy="128" rx="62" ry="18" fill="#fff" opacity=".9" transform="rotate(-18 242 128)"/></svg>